<?xml version="1.0" standalone="no"?>
<!DOCTYPE svg PUBLIC "-//W3C//DTD SVG 20010904//EN"
 "http://www.w3.org/TR/2001/REC-SVG-20010904/DTD/svg10.dtd">
<svg version="1.0" xmlns="http://www.w3.org/2000/svg"
 width="480.000000pt" height="480.000000pt" viewBox="0 0 480.000000 480.000000"
 preserveAspectRatio="xMidYMid meet">
<metadata>
Created by potrace 1.14, written by Peter Selinger 2001-2017
</metadata>
<g transform="translate(0.000000,480.000000) scale(0.100000,-0.100000)"
fill="#000000" stroke="none">
<path d="M0 2400 l0 -2400 2400 0 2400 0 0 2400 0 2400 -2400 0 -2400 0 0
-2400z m2800 1100 l0 -100 200 0 200 0 0 -100 0 -100 500 0 500 0 0 -100 0
-100 100 0 100 0 0 -200 0 -200 -100 0 -100 0 0 -100 0 -100 -100 0 -100 0 0
-100 0 -100 -200 0 -200 0 0 -100 0 -100 -100 0 -100 0 0 -200 0 -200 -100 0
-100 0 0 -100 0 -100 -200 0 -200 0 0 -100 0 -100 -400 0 -400 0 0 100 0 100
-200 0 -200 0 0 100 0 100 -500 0 -500 0 0 100 0 100 -100 0 -100 0 0 200 0
200 100 0 100 0 0 100 0 100 100 0 100 0 0 100 0 100 200 0 200 0 0 100 0 100
100 0 100 0 0 200 0 200 100 0 100 0 0 100 0 100 200 0 200 0 0 100 0 100 400
0 400 0 0 -100z"/>
<path d="M3400 2900 l0 -100 100 0 100 0 0 -200 0 -200 100 0 100 0 0 100 0
100 100 0 100 0 0 200 0 200 -300 0 -300 0 0 -100z"/>
<path d="M1000 2300 l0 -100 -100 0 -100 0 0 -200 0 -200 300 0 300 0 0 100 0
100 -100 0 -100 0 0 200 0 200 -100 0 -100 0 0 -100z"/>
</g>
</svg>
