<?xml version="1.0" standalone="no"?>
<!DOCTYPE svg PUBLIC "-//W3C//DTD SVG 20010904//EN"
 "http://www.w3.org/TR/2001/REC-SVG-20010904/DTD/svg10.dtd">
<svg version="1.0" xmlns="http://www.w3.org/2000/svg"
 width="260.000000pt" height="260.000000pt" viewBox="0 0 260.000000 260.000000"
 preserveAspectRatio="xMidYMid meet">
<metadata>
Created by potrace 1.14, written by Peter Selinger 2001-2017
</metadata>
<g transform="translate(0.000000,260.000000) scale(0.100000,-0.100000)"
fill="#000000" stroke="none">
<path d="M0 1300 l0 -1300 1300 0 1300 0 0 1300 0 1300 -1300 0 -1300 0 0
-1300z m1500 290 l0 -100 -90 0 -90 0 0 -135 0 -135 130 0 130 0 0 -135 0
-135 -265 0 -265 0 0 270 0 270 135 0 135 0 0 100 0 100 90 0 90 0 0 -100z
m-1000 -235 l0 -135 135 0 135 0 0 -135 0 -135 -270 0 -270 0 0 270 0 270 135
0 135 0 0 -135z m1630 0 l0 -135 135 0 135 0 0 -135 0 -135 -270 0 -270 0 0
270 0 270 135 0 135 0 0 -135z"/>
</g>
</svg>
